<svg width="200" height="249" viewBox="0 0 200 249" fill="none" xmlns="http://www.w3.org/2000/svg">
<path d="M59.4064 0.0278199C68.5314 -0.43518 69.4264 4.92932 70.5664 12.5118C80.7714 14.2248 76.8214 19.2878 79.2414 19.9653C87.9964 22.4123 85.4764 18.5223 89.7714 30.8693L90.6564 30.4083C90.1864 27.0638 90.2764 23.5023 90.3614 20.1323C94.1714 14.1323 96.6864 14.9728 103.056 16.2553C108.246 7.79732 110.536 -0.44518 121.511 7.09132C129.471 -1.38368 126.506 1.31132 136.811 3.32682C144.111 4.75632 143.656 5.11782 146.351 11.9348C153.651 15.3363 153.691 18.3808 153.111 25.6548C162.351 34.1358 157.886 38.2443 150.976 45.9948C159.976 51.7638 159.121 44.5368 166.551 51.8088C171.211 45.1948 176.741 42.2458 182.181 49.9898C194.311 49.6193 200.361 54.2688 196.911 66.8558C203.656 81.1113 192.396 77.5383 189.281 84.3158C189.341 86.6393 191.106 88.6868 191.951 90.9038C195.106 99.1498 186.621 101.77 180.481 103.449C190.091 112.348 187.716 119.682 175.056 122.352C170.621 135.771 164.606 124.845 160.396 130.288L160.791 131.367C167.926 136.877 168.991 142.3 161.901 149.586C158.826 152.749 154.951 152.079 150.861 151.679C143.346 169.275 139.521 155.551 130.101 156.475C128.601 158.32 129.516 163.348 127.676 165.935C120.751 175.674 109.191 163.967 104.656 165.343C102.011 169.357 107.941 183.691 89.0464 175.702L82.3364 178.799C79.9264 178.407 77.2364 177.634 74.8464 177.019L74.0714 177.423C66.8514 181.138 65.0014 186.165 62.3564 193.468C60.7914 197.794 57.5914 200.077 56.4664 203.021C52.1064 214.426 49.2064 226.128 45.9764 237.864C43.8264 245.667 38.5214 240.976 36.2014 242.142L35.7714 244.261C35.4364 245.932 35.2264 248.829 32.9114 248.932C25.1914 249.381 24.5914 244.153 20.3514 240.16C16.3364 238.853 14.2214 231.675 13.2214 230.7C3.04642 220.762 12.0514 213.527 18.1264 204.381C20.3664 201.013 25.0114 194.511 27.1614 190.74C29.2014 187.162 26.9514 186.075 28.3714 183.064C33.2464 175.139 40.8514 164.813 29.7514 158.09C28.2364 157.173 28.3714 154.1 28.3464 152.233C9.01142 141.817 28.0714 136.337 28.6114 131.432C24.9364 126.068 5.0514 128.551 15.5164 114.248C-1.2786 105.152 14.6564 100.046 14.9064 96.0413C11.9464 90.2943 -9.40862 91.2248 4.87638 75.3513C1.00138 62.4883 4.5464 62.0168 14.7664 60.0553C21.4864 55.5358 12.2314 45.2433 16.8964 37.4888C22.4714 28.2178 35.2914 40.1213 31.0414 26.1638C28.6164 18.2023 32.4864 15.7518 39.2664 14.0638C40.3214 11.5348 43.1214 3.61382 46.7764 5.08682C52.1614 7.25782 54.4264 2.55282 59.4064 0.0278199Z" fill="#2B3D29"/>
<path d="M129.696 4.63477C137.651 10.5688 139.211 4.12677 142.776 14.4443C151.161 19.3278 147.961 18.4543 149.531 27.2393C149.896 29.2873 157.166 33.5138 152.811 38.1773C147.566 43.7968 144.506 45.9288 152.936 52.0363C153.616 52.5288 154.301 53.0158 154.991 53.4973L152.221 59.4163C153.546 61.3203 154.446 62.2158 154.686 64.4698C153.311 68.3648 148.826 65.8303 145.676 70.2228C145.436 71.9653 145.826 75.0593 144.456 75.7813C141.571 77.2968 139.176 78.6898 140.531 82.4708C145.326 87.9593 152.881 84.4978 147.331 98.1023C144.881 99.9168 140.026 102.119 140.311 105.016C141.556 117.711 132.546 110.827 131.686 118.951C130.866 126.733 123.061 119.821 120.686 125.77C119.876 128.068 120.566 130.088 119.141 132.032C114.366 134.482 112.376 127.115 107.346 128.889C98.5714 131.989 108.401 138.299 103.196 142.274C100.481 144.347 94.5764 140.539 92.9814 144.723C92.1064 147.45 94.7064 150.688 91.5164 152.84C84.5014 157.58 75.5264 148.1 72.2214 158.392C71.9864 159.127 71.6214 162.535 71.4164 163.744C63.7014 164.955 62.7814 165.024 57.4064 170.561C59.5714 165.026 61.9764 159.646 64.6464 154.328C69.7564 144.162 77.8914 142.235 87.5914 138.593C77.1414 139.12 77.3215 140.339 68.9915 144.487L67.6264 143.928C61.0864 157.707 54.3964 171.418 48.8414 185.612C48.2264 187.184 47.5514 189.263 46.2264 189.788C44.7814 189.248 44.8664 189.318 43.9814 188.053C43.3814 184.412 46.3964 180.339 47.8364 176.89C63.2614 139.926 83.7364 104.444 106.041 71.1588C106.791 69.6568 108.976 65.9018 110.431 65.3098L112.221 65.6428C115.211 61.1423 117.991 53.6253 121.286 50.2878C130.266 41.1773 142.006 43.2503 148.921 31.6223C144.376 35.5543 142.066 37.1898 136.561 39.3973L135.271 39.8728C130.441 40.9628 125.796 43.7333 121.906 46.7028C124.591 41.0923 133.436 19.5273 133.541 13.8198L132.936 13.5738C131.361 15.9088 129.216 23.3168 127.696 26.5303C123.206 36.0133 117.631 49.1763 112.156 57.8083L111.881 58.2328C112.581 54.1423 112.741 51.8843 112.691 47.7868C112.656 45.0483 112.001 39.8658 112.536 37.5628C111.666 36.1998 111.721 36.8733 111.941 35.5483C111.771 33.6658 111.776 31.1323 111.721 29.1923C110.801 33.2218 111.321 37.8848 110.501 41.0328C112.276 64.8438 104.921 67.7858 93.0764 87.4513C94.9464 76.9238 94.0064 72.6198 92.7614 61.9703C96.7364 54.9733 99.8114 49.9893 98.7964 41.5233L98.4314 41.0208C97.1764 42.8003 97.5064 48.5778 96.6314 50.7828C95.7614 52.9803 93.7014 56.3073 92.3764 58.3013C92.0714 51.0243 92.0514 46.9583 89.0964 40.2543C90.2414 51.3443 89.9464 61.4073 91.5164 72.5338C85.9514 68.9308 82.8914 66.7023 80.6564 60.2033C80.2814 59.1208 79.2964 56.2778 78.3164 56.0673C76.7714 64.4188 86.2465 70.9143 91.4915 75.3678C92.6665 88.0553 87.1964 96.5553 80.7264 106.871C78.6114 110.241 76.1664 114.749 73.6564 117.751L72.2564 119.75C71.5764 119.174 71.7214 119.36 71.5714 119.105C68.7164 129.08 62.8564 137.957 57.8564 147.216C57.8514 137.922 56.8114 131.834 50.1564 124.761L49.8214 124.891C51.1764 128.61 53.4864 132.346 54.8914 136.112C56.1964 139.623 56.2365 146.677 54.8615 150.947C51.3215 161.926 44.2564 173.192 40.7814 184.409C40.5514 184.638 40.3264 184.868 40.0964 185.098L39.4414 184.681C42.4264 172.259 52.9364 160.927 43.8164 147.754C42.3414 145.624 40.8964 143.521 40.0164 141.101C43.2714 138.195 44.6164 137.782 45.2814 133.44C46.1414 127.866 35.8064 123.165 40.8464 118.479C45.9464 113.74 57.2564 121.998 56.9114 109.164C56.7314 102.54 43.3615 101.312 47.9915 93.6833C51.4565 87.7718 43.6014 87.4783 44.5864 81.8303C47.7514 77.1683 53.6814 82.8503 53.3914 68.5943C55.8814 66.0518 56.8214 64.8133 58.9214 61.9298C61.9414 62.7268 64.5214 63.6538 67.4364 62.1068C71.2564 57.1858 63.5014 51.4643 65.7014 46.3978C67.3414 45.0983 68.1315 45.0953 70.1765 45.6033C71.8865 46.0273 73.0164 45.5688 74.5664 44.8918C76.4314 44.1218 80.6214 42.9653 81.5264 41.0243C82.6814 38.5388 81.2464 36.4653 84.3964 34.5923C88.5914 34.5673 93.3764 37.4418 94.7964 30.1583C95.3814 27.1448 92.5764 22.4263 95.6864 20.0893C99.6364 17.7558 102.181 22.1308 106.271 18.4098C108.621 16.2733 111.551 6.23126 115.296 8.34126C122.221 12.2398 123.741 10.6773 129.696 4.63477Z" fill="#FFE4C4"/>
<path d="M106.041 71.1587L106.571 72.1942C104.641 75.0687 103.656 76.7382 102.066 79.8147C98.3612 84.9417 93.3662 94.1187 90.1912 99.7242C85.9612 107.237 81.8963 114.511 78.1413 122.279C75.1362 128.558 70.9362 138.021 67.6262 143.928C61.0862 157.707 54.3963 171.418 48.8413 185.612C48.2263 187.184 47.5513 189.263 46.2263 189.788C44.7813 189.248 44.8663 189.318 43.9813 188.053C43.3813 184.412 46.3963 180.339 47.8363 176.89C63.2613 139.926 83.7363 104.444 106.041 71.1587Z" fill="#FFE4C4"/>
<path d="M117.791 93.3736C125.551 94.0411 135.606 90.1371 139.566 90.7051C137.766 91.3236 135.221 92.1351 133.581 92.9621C127.221 96.1751 117.401 95.0711 111.341 96.7911L111.101 98.9521C102.486 93.6851 89.6061 105.051 85.5111 112.325C83.6161 115.692 81.9011 119.325 80.2111 122.812L79.2011 123.271L78.1411 122.279C81.8961 114.511 85.9611 107.237 90.1911 99.7241L91.7561 100.728C92.9111 100.505 95.5511 98.7536 96.6311 98.0221C102.606 93.9816 109.761 95.1351 116.026 93.4291C117.301 93.6221 116.866 93.7991 117.791 93.3736Z" fill="#283C21"/>
<path d="M129.486 65.6953C138.456 63.1213 140.651 61.8453 148.101 56.1433C138.901 69.7223 126.681 66.3908 113.851 73.5753C103.361 79.4478 97.8714 90.7573 91.7564 100.728L90.1914 99.7243C93.3664 94.1188 98.3614 84.9418 102.066 79.8148C104.051 79.1563 103.881 77.3223 106.691 75.2418C108.026 74.9123 111.901 72.1008 113.806 71.0803C118.676 68.4708 121.201 67.7918 126.601 66.3433C128.006 66.2083 128.246 66.2988 129.486 65.6953Z" fill="#283C21"/>
<path d="M70.9664 102.707C68.3264 93.6908 64.9464 89.9353 61.7714 81.5583C61.4164 80.6308 60.6414 75.3048 61.2314 74.3198C63.4014 81.4293 64.6464 83.6753 68.1664 90.1993C68.2714 87.1873 68.4914 80.8873 69.7114 78.1623C69.9264 81.9598 70.1213 87.7118 69.0563 91.2843C73.0763 99.3233 75.1764 108.812 73.6564 117.751L72.2563 119.75C71.5763 119.174 71.7213 119.36 71.5714 119.105C76.0714 97.0713 57.8063 103.206 56.0063 90.2613C57.0363 90.6878 58.2964 93.5598 59.7914 94.7758C64.1264 98.2948 66.8664 98.6923 70.9664 102.707Z" fill="#1C261A"/>
<path d="M80.2115 122.812C83.2815 121.023 86.7265 118.252 89.8565 117.063C97.2065 114.272 104.781 116.103 112.316 116.032C116.531 115.992 120.536 114.624 124.536 113.359C114.812 118.849 111.646 117.778 101.096 117.337C90.9815 116.915 79.9965 123.558 75.2365 132.349C73.8815 134.703 69.7215 142.034 68.9915 144.487L67.6265 143.928C70.9365 138.021 75.1365 128.558 78.1415 122.279L79.2015 123.271L80.2115 122.812Z" fill="#1C261A"/>
<path d="M111.102 98.9523L111.342 96.7913C121.077 102.822 122.162 102.636 133.677 102.401C126.292 104.314 121.087 105.014 114.047 100.821C113.052 100.221 112.072 99.5978 111.102 98.9523Z" fill="#0F110C"/>
<path d="M106.041 71.1588C106.791 69.6568 108.976 65.9018 110.431 65.3098L112.221 65.6428C110.436 68.8748 108.591 72.0753 106.691 75.2418C103.881 77.3223 104.051 79.1563 102.066 79.8148C103.656 76.7383 104.641 75.0688 106.571 72.1943L106.041 71.1588Z" fill="#1C261A"/>
<path d="M106.042 71.1588C106.792 69.6568 108.976 65.9018 110.431 65.3098C109.831 67.6723 108.046 70.2153 106.571 72.1943L106.042 71.1588Z" fill="#687663"/>
<path d="M116.026 93.4293C119.606 86.4438 125.711 83.4908 132.826 80.9883C126.046 85.9538 123.246 86.9263 117.791 93.3738C116.866 93.7993 117.301 93.6223 116.026 93.4293Z" fill="#1C261A"/>
<path d="M110.502 41.0327C109.247 32.8742 109.242 25.5107 113.087 18.0632C113.127 18.9532 111.887 26.7507 111.722 29.1922C110.802 33.2217 111.322 37.8847 110.502 41.0327Z" fill="#0F110C"/>
<path d="M126.602 66.3434C131.307 58.9309 132.527 55.7534 140.457 51.2754C136.772 55.3774 131.072 60.1379 129.487 65.6954C128.247 66.2989 128.007 66.2084 126.602 66.3434Z" fill="#1C261A"/>
<path d="M119.441 22.9482C117.586 28.8227 115.601 32.2007 112.536 37.5627C111.666 36.1997 111.721 36.8732 111.941 35.5482C114.486 30.8697 116.421 27.4047 119.441 22.9482Z" fill="#0F110C"/>
<path d="M135.271 39.8728C135.821 33.8253 138.571 30.2468 142.901 26.4973C139.191 31.7978 138.241 33.2358 136.561 39.3973L135.271 39.8728Z" fill="#0F110C"/>
<path d="M90.9066 135.132C93.1616 134.891 93.6765 134.665 95.6865 135.482C94.7865 136.355 95.2166 135.962 93.2766 135.939C90.9816 136.375 90.6315 136.444 88.3315 136.358C89.2565 135.454 89.5666 135.551 90.9066 135.132Z" fill="#464647"/>
<path d="M157.096 59.3809C157.626 57.3734 158.406 53.3524 159.611 52.0569C162.896 52.3879 165.691 57.7064 169.451 54.1934C174.721 49.2709 174.971 46.6919 180.536 54.0664C191.671 53.7649 195.921 55.3819 192.621 67.4044C196.876 76.2354 194.226 75.3329 186.966 79.7419C180.156 83.8764 189.781 90.5474 188.111 94.7999C186.161 99.7539 179.451 97.4024 177.581 102.397C175.481 107.63 183.456 109.178 182.181 113.687C180.361 120.135 174.456 115.834 172.036 120.074C170.921 122.033 171.096 123.904 169.241 125.239C164.036 126.501 160.176 122.597 156.786 127.973C155.816 129.507 155.756 130.014 156.116 131.722C158.446 135.201 163.001 136.55 161.816 141.196C160.866 144.904 160.211 148.387 155.566 148.071C153.001 147.895 150.756 147.254 148.706 148.67C145.646 150.781 146.181 157.375 141.206 156.234C136.276 154.43 132.946 150.005 127.311 152.875C123.166 155.045 126.896 162.229 123.271 164.622C115.876 169.509 108.851 157.348 101.631 161.531C97.1913 164.1 102.616 170.061 98.9563 173.598C94.9913 174.743 93.0663 173.473 89.1113 171.976C86.0513 172.878 84.9063 173.399 82.0513 174.738C77.1063 173.432 76.2613 173.07 71.2363 174.642C74.8913 170.189 75.4263 168.738 80.7263 166.802C79.7863 166.588 79.8413 166.39 78.9713 165.635C80.8413 162.961 83.3413 160.827 85.7513 158.641C88.2263 158.188 89.6563 157.963 91.9763 157.094C98.5663 154.626 95.1463 152.9 97.4413 147.578C98.7163 146.706 101.481 147.052 103.386 147.025C107.441 144.951 107.351 143.132 109.371 138.833C113.091 137.211 127.896 135.32 132.216 135.358L135.536 139.348L135.671 137.34L135.226 136.515L135.561 135.943C140.436 135.688 149.716 140.227 156.211 141.26C144.406 134.843 137.071 132.001 123.826 133.419L124.516 127.91C126.326 125.553 135.066 128.123 135.086 121.468C135.096 117.482 149.261 112.53 152.476 113.473L153.731 112.403C161.981 110.641 169.651 112.32 177.976 112.697C164.061 107.741 158.016 108.573 144.531 112.378L143.951 111.12C144.271 108.788 144.346 106.952 144.456 104.62C159.441 96.1389 166.876 96.0439 184.106 94.7754C179.826 93.9649 170.856 93.7779 169.386 93.3039C168.421 93.7089 168.351 93.8799 167.386 93.9264C161.616 94.8279 157.956 95.9419 152.421 97.1324L152.046 96.5194C153.711 89.7524 161.066 82.4254 167.306 79.6654L166.456 78.0894C167.871 73.6334 185.236 62.8079 188.951 59.4044C179.591 63.1939 175.311 66.6149 167.481 72.8389C169.581 67.0874 171.791 61.3764 174.106 55.7099C169.126 61.1869 168.091 66.5879 164.621 72.9124C161.826 78.0114 156.461 83.6454 152.241 87.7449C152.636 82.9184 153.256 76.9864 155.026 72.4894C157.161 67.0719 161.936 65.4644 157.096 59.3809Z" fill="#FFE4C4"/>
<path d="M166.457 78.0893C170.862 76.2558 180.107 75.8733 185.992 74.4673C177.722 79.0503 174.552 77.2793 167.307 79.6653L166.457 78.0893Z" fill="#1C261A"/>
<path d="M78.9712 165.635C83.6212 164.09 88.6112 163.908 93.2912 165.447L93.6312 166.147L93.5112 165.536L93.9312 165.951C91.6662 166.668 86.4262 165.792 82.0762 166.562L81.2312 166.708L80.7262 166.802C79.7862 166.588 79.8412 166.39 78.9712 165.635Z" fill="#1C261A"/>
<path d="M152.477 113.473L153.732 112.403C155.882 113.713 164.177 117.894 164.932 118.623C160.462 118.887 156.227 115.794 152.477 113.473Z" fill="#0F110C"/>
<path d="M167.386 93.9262C169.826 89.2107 174.886 88.1822 179.596 87.0222C175.626 89.4197 173.286 90.3932 169.386 93.3037C168.421 93.7087 168.351 93.8797 167.386 93.9262Z" fill="#1C261A"/>
<path d="M135.672 137.34L136.202 138.019C137.597 139.802 142.812 144.592 143.152 145.52C139.902 144.7 137.272 142.12 135.537 139.348L135.672 137.34Z" fill="#0F110C"/>
<path d="M119.437 146.064C121.132 145.971 122.292 145.763 123.902 146.301C122.782 147.123 115.402 148.927 113.612 149.424C115.422 150.293 117.917 151.394 119.067 153.039C117.812 153.222 116.887 152.674 115.672 152.19C111.542 149.904 106.777 148.621 102.247 147.057C110.772 148.225 111.197 148.317 119.437 146.064Z" fill="#0F110C"/>
<path d="M46.0066 8.28165C56.2316 10.8552 54.1315 6.00915 62.1815 4.17865C66.1815 3.26965 65.7666 12.6311 67.5166 14.7071C69.4616 17.0151 71.0016 16.8162 74.1966 17.2562C75.4966 24.1052 76.0616 23.8232 82.5816 24.8632C85.0066 25.2502 85.2566 28.1942 84.1716 30.2367C78.4966 32.3502 79.6666 32.8882 77.9516 38.1837C69.0466 45.2617 52.8616 37.0462 65.4266 59.1346C58.2116 57.7611 57.5116 57.9912 52.5616 63.0902C53.4166 56.4372 54.2416 54.3557 56.4866 47.9382C55.1016 47.6782 55.6766 48.0191 54.6466 47.1196C54.4866 42.7566 59.8416 14.6212 60.8666 9.32265C56.2416 18.2512 52.9716 35.5201 51.9366 45.5206C50.0816 41.0221 46.1766 33.4072 46.3416 28.9647L44.9916 28.7127L44.5666 29.1392C43.3916 26.7527 42.3266 24.4012 40.8616 22.1832C43.1016 31.4977 48.3966 40.2331 49.9866 48.9426C50.5216 51.8621 49.5816 72.5067 48.7966 75.5567C47.3916 76.2487 46.3766 77.1466 44.8716 76.3721C36.9715 79.9501 40.2866 86.0691 44.7766 90.7491C43.9116 92.4211 42.8166 94.3971 42.1266 96.1161C44.3366 101.98 44.1066 102.909 43.6316 109.245C40.5816 103.162 35.9716 95.2751 35.5216 88.6326C34.5816 89.2566 35.0166 89.1106 34.3016 89.2691C32.4816 87.9417 30.4566 84.8677 28.6416 82.9462C24.0766 78.1102 19.8716 73.9876 14.4166 70.1507C18.3166 75.3902 22.0866 79.0647 26.7816 83.6172C20.6016 83.2612 19.9766 82.7651 14.0166 81.2941L13.7616 81.7442C15.6816 85.0977 24.4416 85.4172 28.1316 85.7722C33.1566 92.0512 38.8966 104.965 42.0466 112.671C38.8966 114.574 37.8516 115.372 35.5566 118.249C31.2416 114.423 30.0916 109.63 25.2566 105.473L24.6016 105.886C25.7266 107.976 29.1816 112.504 29.4366 114.35L29.2316 114.686C30.9316 115.225 30.1566 114.731 31.2666 116.756C31.6216 117.452 34.3916 119.795 35.1616 120.488C35.2466 120.815 35.3266 121.142 35.4066 121.47C36.2066 127.108 42.1966 132.613 38.0516 138.376L36.9966 139.857L36.4315 140.645C35.8815 143.606 37.9165 146.345 39.4315 148.916C39.1215 152.69 38.7516 156.458 38.3166 160.22C35.7416 157.914 33.1766 156.6 32.8016 153.262C32.0666 146.713 26.1516 148.841 23.8716 143.422C24.5466 138.291 33.4966 137.747 33.0216 132.095C32.2916 123.417 22.3816 126.146 17.7016 122.232C14.8666 119.864 19.9766 116.495 19.5366 114.019C18.6866 108.463 12.0966 110.743 12.5466 104.527C14.2166 101.37 19.1216 101.333 19.2816 97.3987C19.6466 88.4087 9.02658 90.3867 5.02658 85.5862C2.09658 82.2096 8.53655 78.4797 8.43155 76.7392C7.69655 64.1887 3.85159 65.8521 17.1616 63.5746C26.1566 62.0356 17.0716 44.7297 20.4966 39.4757C23.4866 34.8857 28.4666 39.0487 32.6866 37.1377C39.0516 33.4907 33.5266 26.8032 34.3416 21.8827C34.8616 18.7237 41.0516 18.2217 43.2166 14.6747C44.4816 12.6047 45.1566 10.4977 46.0066 8.28165Z" fill="#FFE4C4"/>
<path d="M33.5117 40.4834C37.5417 47.2524 38.3567 52.2289 38.2417 59.9894C43.7567 66.2719 44.6167 68.5564 48.7967 75.5569C47.3917 76.2489 46.3766 77.1469 44.8716 76.3724L45.6216 75.6554C45.2766 73.5544 43.9567 72.0374 42.7267 70.2249C35.7467 67.9704 31.0567 69.6834 25.7417 64.2409L26.1417 63.9014C33.0067 66.1379 33.8367 66.5064 40.9617 67.2694C32.3317 57.4989 29.3617 55.7119 25.9917 42.4289C29.6617 49.2884 31.3967 53.3174 36.5067 59.1904C36.2517 51.0979 35.5617 48.2344 33.5117 40.4834Z" fill="#1C261A"/>
<path d="M70.1065 21.6714C68.9665 27.2709 68.0115 29.4809 65.3565 34.5734C67.1115 33.7064 70.8215 31.6689 72.5565 31.4334C64.1715 38.4839 61.6315 37.4524 56.4865 47.9384C55.1015 47.6784 55.6765 48.0194 54.6465 47.1199C57.6865 41.0814 60.7715 37.4729 64.5715 31.9809C66.4365 29.2884 68.6465 24.6454 70.1065 21.6714Z" fill="#1C261A"/>
<path d="M32.2417 75.7773C34.3867 80.9038 35.4217 83.0113 35.5217 88.6328C34.5817 89.2568 35.0167 89.1108 34.3017 89.2693C33.6417 84.7678 32.9517 80.2708 32.2417 75.7773Z" fill="#0F110C"/>
<path d="M31.2664 116.756C29.2264 116.179 24.8814 115.725 23.6914 114.055C26.1464 113.861 26.7664 114.127 29.2314 114.686C30.9314 115.225 30.1564 114.731 31.2664 116.756Z" fill="#0F110C"/>
<path d="M44.9914 28.7128C44.9014 26.5338 44.5814 24.1793 45.2764 22.1848C46.0714 23.5638 46.3214 27.3618 46.3414 28.9648L44.9914 28.7128Z" fill="#464647"/>
<path d="M39.5662 196.611L44.1163 198.45C39.1163 210.322 36.5413 223.316 34.0363 235.914C33.6063 238.093 33.0213 243.015 31.8013 244.596C30.1313 240.335 29.7312 239.11 26.0112 236.197C29.7462 221.742 34.1062 210.339 39.5662 196.611Z" fill="#FFE4C4"/>
<path d="M31.1816 190.801C32.0266 191.543 31.7366 191.068 31.9716 192.277C28.7916 200.665 19.3366 217.737 15.5966 227.129C15.3266 227.283 15.0566 227.437 14.7866 227.591C13.5666 225.457 12.7316 223.274 11.7866 221.01C14.6316 215.023 26.8266 197.841 31.1816 190.801Z" fill="#FFE4C4"/>
<path d="M34.6861 193.66L36.0912 194.466C36.2612 195.825 33.1462 203.659 32.3312 205.201C27.0412 215.238 25.5612 226.345 21.9862 236.604L20.9612 236.895C20.0062 235.95 18.8612 234.991 18.3912 233.698C16.9812 229.816 32.2361 199.124 34.6861 193.66Z" fill="#FFE4C4"/>
<path d="M51.3367 199.888C52.5117 200.081 52.5567 200.136 53.6567 200.632C53.6067 201.506 51.0867 207.139 50.4717 208.311C47.4067 214.159 44.6817 235.147 41.0817 239.165C40.0467 238.864 39.5717 238.627 38.5867 238.175C37.4567 232.637 48.2867 205.963 51.3367 199.888Z" fill="#FFE4C4"/>
<path d="M72.9313 166.94L73.0063 167.936C70.0213 172.137 57.8263 192.168 56.0413 193.191C55.5213 192.313 55.2313 192.136 55.6563 191.358C59.2963 184.699 67.3613 171.134 72.9313 166.94Z" fill="#FFE4C4"/>
<path d="M64.7363 168.764C65.3913 168.964 65.0662 168.784 65.6362 169.414C64.6462 171.386 63.3613 173.191 62.1163 175.011C58.4763 180.346 55.4562 186.004 52.5862 191.784L52.0012 191.459C49.8162 187.96 61.0663 171.59 64.7363 168.764Z" fill="#FFE4C4"/>
<path d="M41.5314 152.357C46.6414 157.498 39.8264 173.077 37.6564 178.845L37.0914 179.214C37.0714 179.14 41.1564 155.308 41.5314 152.357Z" fill="#FFE4C4"/>
<path d="M152.181 70.7493L153.026 70.9138L153.426 71.5148C152.496 75.5148 151.761 78.3133 150.481 82.2028C149.081 82.7883 148.471 82.2353 146.601 81.7343L145.156 81.2343L144.941 80.5833C153.801 75.2293 146.006 73.8318 152.181 70.7493Z" fill="#FFE4C4"/>
<path d="M49.4362 105.432C51.3162 106.988 52.0463 107.328 52.9763 109.479C52.8913 112.447 51.5312 112.853 48.8062 113.776C48.6212 110.97 49.0412 108.196 49.4362 105.432Z" fill="#FFE4C4"/>
<path d="M76.5912 157.341C78.6112 157.388 79.7513 157.081 81.2913 158.024C81.0563 159.478 79.1513 160.944 77.9713 162.073L75.5513 164.395C75.7613 161.725 76.0962 159.934 76.5912 157.341Z" fill="#FFE4C4"/>
<path d="M107.457 132.816C109.857 132.834 111.202 133.67 113.042 135.054L113.072 135.758C111.607 136.315 110.752 136.791 109.182 136.688C107.757 135.353 108.077 135.066 107.457 132.816Z" fill="#FFE4C4"/>
<path d="M45.7365 112.725C45.2815 110.544 45.7514 105.95 46.5064 103.854L46.9514 104.499C47.5364 107.327 47.7515 110.395 45.7365 112.725Z" fill="#FFE4C4"/>
<path d="M24.5664 239.238C27.0964 239.936 28.0814 241.947 29.2714 244.117C26.3914 243.119 25.8714 241.936 24.5664 239.238Z" fill="#FFE4C4"/>
</svg>
